<svg width="82" height="22" viewBox="0 0 82 22" fill="none" xmlns="http://www.w3.org/2000/svg">
<path d="M2.52666 20.9466L10.9211 3.66409C10.9211 3.66409 3.57594 7.00909 2.00198 10.9116C0.42802 14.8141 0.927103 18.4038 2.002 20.9466" stroke="#499A18" stroke-linecap="round" stroke-linejoin="round"/>
<path d="M1.99658 20.9925C1.99658 20.9925 27.7102 -8.60087 19.3157 4.2216C10.9213 17.0441 20.1707 6.63145 15.4974 14.0678C10.8241 21.5041 1.99658 20.9925 1.99658 20.9925Z" stroke="#499A18" stroke-linejoin="round"/>
<path d="M27.9264 7.84138C29.2811 7.84138 30.2837 8.06538 30.9344 8.51338C31.5957 8.95071 31.9264 9.72938 31.9264 10.8494C31.9264 11.9694 31.6011 12.86 30.9504 13.5214C30.2997 14.172 29.2491 14.4974 27.7984 14.4974H26.4544L26.4064 17.9694L27.6544 18.0814C27.6544 18.38 27.5637 18.7 27.3824 19.0414H23.7824L23.7344 18.4974C24.1824 18.3267 24.6411 18.1987 25.1104 18.1134C25.0464 13.9534 24.9931 10.86 24.9504 8.83338C24.6624 8.78005 24.1931 8.65205 23.5424 8.44938L23.6224 7.84138H27.9264ZM27.6384 13.4574C28.5557 13.4467 29.2544 13.2174 29.7344 12.7694C30.2144 12.3107 30.4544 11.708 30.4544 10.9614C30.4544 10.2147 30.2197 9.69738 29.7504 9.40938C29.2811 9.11071 28.5291 8.96138 27.4944 8.96138C27.3024 8.96138 26.9771 8.96671 26.5184 8.97738C26.5184 8.98805 26.5024 10.4867 26.4704 13.4734L27.6384 13.4574ZM34.9855 7.15338C35.3162 7.15338 35.5508 7.16405 35.6895 7.18538C35.6895 7.55871 35.6202 7.98538 35.4815 8.46538C35.3855 14.7587 35.3375 17.9214 35.3375 17.9534L36.6815 18.0814C36.6815 18.38 36.5908 18.7 36.4095 19.0414H32.7295L32.6815 18.4814C33.1722 18.3107 33.6522 18.1827 34.1215 18.0974L33.9615 8.41738C33.3748 8.38538 32.9055 8.32138 32.5535 8.22538L32.6175 7.39338C33.1615 7.23338 33.9508 7.15338 34.9855 7.15338ZM43.9763 13.8094L43.8963 17.9374C44.3549 17.9694 44.8136 18.044 45.2723 18.1614L45.2403 18.7214C45.0696 18.8067 44.7603 18.9027 44.3123 19.0094C43.8749 19.1054 43.4429 19.1534 43.0163 19.1534C42.8243 18.7694 42.7176 18.4014 42.6963 18.0494C41.4803 18.8494 40.6269 19.2494 40.1363 19.2494C39.3789 19.2494 38.7709 19.0467 38.3123 18.6414C37.8536 18.236 37.6243 17.6707 37.6243 16.9454C37.6243 15.2707 38.6483 14.4067 40.6963 14.3534C41.8909 14.3214 42.4936 14.3054 42.5043 14.3054L42.4883 13.7614C42.4669 13.0254 42.3283 12.4974 42.0723 12.1774C41.8163 11.8467 41.3576 11.6814 40.6963 11.6814C40.4189 11.6814 40.1203 11.7454 39.8003 11.8734L39.4163 13.4734C39.3629 13.484 39.2723 13.4894 39.1443 13.4894L38.4883 13.4414C38.3176 12.9827 38.2269 12.348 38.2163 11.5374C38.4189 11.4307 38.8829 11.2707 39.6083 11.0574C40.3336 10.8334 40.7976 10.7214 41.0003 10.7214C42.0883 10.7214 42.8563 10.9614 43.3043 11.4414C43.7523 11.9214 43.9763 12.7107 43.9763 13.8094ZM40.4883 18.1614C40.7976 18.1614 41.5123 17.8147 42.6323 17.1214L42.5523 15.1214C41.8269 15.1854 41.2189 15.244 40.7283 15.2974C40.2376 15.3507 39.8429 15.4947 39.5443 15.7294C39.2456 15.9534 39.0963 16.3107 39.0963 16.8014C39.0963 17.708 39.5603 18.1614 40.4883 18.1614ZM51.1613 10.7214C52.1853 10.7214 52.9266 10.9774 53.3853 11.4894C53.8439 11.9907 54.0733 12.7587 54.0733 13.7934C54.0733 14.092 54.0306 15.4787 53.9453 17.9534L55.2893 18.0814C55.2893 18.38 55.1986 18.7 55.0173 19.0414H51.3373L51.2893 18.4814C51.7799 18.3107 52.2599 18.1827 52.7293 18.0974C52.6653 15.3027 52.6066 13.7507 52.5533 13.4414C52.5106 13.1214 52.4359 12.844 52.3293 12.6094C52.2226 12.3747 52.0626 12.2094 51.8493 12.1134C51.6359 12.0174 51.3533 11.9694 51.0013 11.9694C50.2973 11.9694 49.6146 12.14 48.9533 12.4814C48.8893 14.9134 48.8466 16.7374 48.8253 17.9534L50.1693 18.0814C50.1693 18.38 50.0786 18.7 49.8973 19.0414H46.2173L46.1693 18.4814C46.6599 18.3107 47.1399 18.1827 47.6093 18.0974C47.5453 15.388 47.4919 13.3827 47.4493 12.0814C46.8626 12.0494 46.3933 11.9854 46.0413 11.8894L46.1053 11.0574C46.6813 10.8974 47.5186 10.8174 48.6173 10.8174C48.7453 11.0094 48.8413 11.2867 48.9053 11.6494C49.3639 11.404 49.8226 11.1907 50.2813 11.0094C50.7506 10.8174 51.0439 10.7214 51.1613 10.7214ZM57.2126 18.0494L57.0846 12.0174H55.8526L55.8046 11.4574C55.9113 11.3827 56.2206 11.244 56.7326 11.0414L58.0446 8.99338C58.258 9.01471 58.4233 9.06805 58.5406 9.15338L58.5246 10.9134C59.3246 10.9134 59.9806 10.9667 60.4926 11.0734C60.4926 11.3614 60.402 11.676 60.2206 12.0174H58.4926C58.4713 13.2974 58.45 15.2387 58.4286 17.8414C59.026 17.8734 59.6233 17.98 60.2206 18.1614L60.2046 18.7214C60.0553 18.8174 59.6713 18.9294 59.0526 19.0574C58.4446 19.1854 57.9433 19.2494 57.5486 19.2494C57.4953 19.164 57.426 18.9827 57.3406 18.7054C57.2553 18.4174 57.2126 18.1987 57.2126 18.0494ZM62.9191 18.0174C63.2925 18.1774 63.7458 18.2574 64.2791 18.2574C64.8231 18.2574 65.2498 18.156 65.5591 17.9534C65.8685 17.7507 66.0231 17.4734 66.0231 17.1214C66.0231 16.7694 65.8791 16.476 65.5911 16.2414C65.3031 16.0067 64.9511 15.7987 64.5351 15.6174C64.1191 15.436 63.7031 15.244 63.2871 15.0414C62.8711 14.8387 62.5191 14.572 62.2311 14.2414C61.9431 13.9107 61.7991 13.5267 61.7991 13.0894C61.7991 12.3534 62.0445 11.7774 62.5351 11.3614C63.0258 10.9347 63.7031 10.7214 64.5671 10.7214C65.4418 10.7214 66.2631 10.9187 67.0311 11.3134C67.0418 11.42 67.0471 11.708 67.0471 12.1774C67.0471 12.636 66.9991 13.0307 66.9031 13.3614C66.6471 13.4467 66.3431 13.4894 65.9911 13.4894L65.4631 11.8574C65.2285 11.74 64.9085 11.6814 64.5031 11.6814C64.1085 11.6814 63.7938 11.788 63.5591 12.0014C63.3245 12.204 63.2071 12.4654 63.2071 12.7854C63.2071 13.0947 63.3511 13.3667 63.6391 13.6014C63.9378 13.836 64.2951 14.0494 64.7111 14.2414C65.1271 14.4227 65.5431 14.62 65.9591 14.8334C66.3751 15.036 66.7271 15.308 67.0151 15.6494C67.3138 15.98 67.4631 16.364 67.4631 16.8014C67.4631 17.5694 67.1645 18.172 66.5671 18.6094C65.9805 19.036 65.2551 19.2494 64.3911 19.2494C63.9218 19.2494 63.4205 19.1747 62.8871 19.0254C62.3538 18.8654 61.9058 18.6627 61.5431 18.4174C61.5431 17.7027 61.6071 17.068 61.7351 16.5134C61.9805 16.4707 62.3111 16.4494 62.7271 16.4494L62.9191 18.0174Z" fill="black"/>
</svg>
